<svg xmlns="http://www.w3.org/2000/svg" width="34" height="34" viewBox="0 0 34 34" fill="none">
  <circle cx="17" cy="17" r="17" transform="matrix(-1 0 0 1 34 0)" fill="currentColor"/>
  <path d="M8.29289 17.7071C7.90237 17.3166 7.90237 16.6834 8.29289 16.2929L14.6569 9.92893C15.0474 9.53841 15.6805 9.53841 16.0711 9.92893C16.4616 10.3195 16.4616 10.9526 16.0711 11.3431L10.4142 17L16.0711 22.6569C16.4616 23.0474 16.4616 23.6805 16.0711 24.0711C15.6805 24.4616 15.0474 24.4616 14.6569 24.0711L8.29289 17.7071ZM25 18L9 18L9 16L25 16L25 18Z" fill="white"/>
</svg>