<svg xmlns="http://www.w3.org/2000/svg" width="39" height="22" viewBox="0 0 39 22" fill="none">
  <path fill-rule="evenodd" clip-rule="evenodd" d="M2 0.509766C0.895431 0.509766 0 1.4052 0 2.50977V19.2885C0 20.3931 0.895434 21.2885 2 21.2885H36.4857C37.5902 21.2885 38.4857 20.3931 38.4857 19.2885V2.50977C38.4857 1.4052 37.5902 0.509766 36.4856 0.509766H2ZM15.7968 11.0572C16.0728 11.5372 16.4028 11.9032 16.7868 12.1552C17.1828 12.4072 17.5728 12.6292 17.9568 12.8212C18.3408 13.0132 18.6648 13.2052 18.9288 13.3972C19.2048 13.5892 19.3428 13.7992 19.3428 14.0272C19.3428 14.4712 19.0908 14.6932 18.5868 14.6932C18.0828 14.6932 17.1888 14.5072 15.9048 14.1352L15.7068 16.8172C16.3668 17.0452 17.0808 17.2012 17.8488 17.2852V18.5812H20.2248V17.1772C20.9688 16.9852 21.5328 16.5952 21.9168 16.0072C22.3128 15.4072 22.5108 14.7292 22.5108 13.9732C22.5108 13.2052 22.3728 12.5812 22.0968 12.1012C21.8328 11.6212 21.5088 11.2552 21.1248 11.0032C20.7408 10.7392 20.3568 10.5172 19.9728 10.3372C19.5888 10.1452 19.2588 9.96518 18.9828 9.79718C18.7188 9.62918 18.5868 9.45518 18.5868 9.27518C18.5868 8.81918 18.8688 8.59118 19.4328 8.59118C19.8768 8.59118 20.6928 8.72918 21.8808 9.00518L22.2408 6.12518C21.4968 5.99318 20.8248 5.90318 20.2248 5.85518V4.23518H17.8488V5.92718C17.0688 6.11918 16.4628 6.52118 16.0308 7.13318C15.6108 7.73318 15.4008 8.41718 15.4008 9.18518C15.4008 9.95318 15.5328 10.5772 15.7968 11.0572Z" fill="#CE838E"/>
</svg>