<svg width="691" height="721" viewBox="0 0 691 721" fill="none" xmlns="http://www.w3.org/2000/svg">
<rect x="32" y="6" width="653" height="621" fill="#D9D9D9" stroke="#946E4A" stroke-width="12"/>
<path d="M14 487.5C21.2 472.7 26.6667 439 28.5 424C30 461.5 32.1 538.1 28.5 544.5C24 552.5 4.13833 553.238 1 536.5C-2 520.5 5 506 14 487.5Z" fill="#946E4A"/>
<path d="M19.0783 190.51C23.8477 175.707 27.4689 142.002 28.6833 127C29.6769 164.506 31.068 241.117 28.6833 247.518C25.7024 255.52 12.5457 256.257 10.4669 239.517C8.47961 223.515 13.1165 209.013 19.0783 190.51Z" fill="#946E4A"/>
<path d="M31 632.5C39.5948 631.994 52.8417 631.642 64.4601 632.244L224.441 631.023C242.907 627.289 276.723 628.723 292.5 627.5C307.897 627.582 330.412 628.437 349.917 630.065L449.784 629.303C451.826 628.796 453.782 628.231 455.5 627.5C463.981 627.557 475.276 628.107 486.814 629.02L686 627.5C661.333 630.833 609.6 637.5 600 637.5C588 637.5 579 644.37 579 656C579 666.5 585.5 677 566 677C550 677 553.5 665.5 553.5 656C553.5 648 547 643.5 538 637.5C532.677 633.951 509.284 630.799 486.814 629.02L449.784 629.303C442.516 631.109 434.153 632.193 431.5 637.5C428.5 643.5 429 655 429 663C429 671 422 681 410.5 681C399 681 388.013 675.886 389.5 663C391 650 396.04 645.229 389.5 637.5C386.717 634.211 369.896 631.733 349.917 630.065L224.441 631.023C217.743 632.378 213.065 634.412 212 637.5C207 652 229 682.5 231 696.5C233 710.5 226 720.5 206 720.5C186 720.5 179 704.822 179 696.5C179 686 203.5 644.5 195 637.5C186.5 630.5 130 632.5 121.5 637.5C113 642.5 130.5 661.076 130.5 672.5C130.5 682.5 120.5 693 103 692C85.5 691 79 685 79 672.5C79 660 94 645.5 88 637.5C85.6268 634.336 75.8221 632.834 64.4601 632.244L31 632.5Z" fill="#946E4A"/>
<path d="M453.914 609.82H453.375C451.635 607.659 450.766 605.188 450.766 602.406C450.766 599.776 451.607 597.409 453.289 595.305H453.828C453 596.216 452.362 597.292 451.914 598.531C451.471 599.771 451.25 601.044 451.25 602.352C451.25 603.971 451.508 605.432 452.023 606.734C452.544 608.042 453.174 609.07 453.914 609.82ZM463.695 606.242L456.203 596.312V603.664C456.203 604.273 456.232 604.674 456.289 604.867C456.352 605.06 456.523 605.237 456.805 605.398C457.086 605.56 457.508 605.641 458.07 605.641V606H454.117V605.641C454.622 605.604 455.008 605.513 455.273 605.367C455.539 605.216 455.695 605.055 455.742 604.883C455.794 604.711 455.82 604.305 455.82 603.664V598.047C455.82 597.234 455.781 596.69 455.703 596.414C455.63 596.138 455.51 595.961 455.344 595.883C455.182 595.805 454.818 595.766 454.25 595.766V595.406H457.375L463.648 603.695V597.359C463.648 596.891 463.599 596.562 463.5 596.375C463.406 596.188 463.211 596.039 462.914 595.93C462.617 595.82 462.26 595.766 461.844 595.766V595.406H465.688V595.766C465.24 595.802 464.885 595.888 464.625 596.023C464.37 596.159 464.206 596.323 464.133 596.516C464.065 596.703 464.031 597.023 464.031 597.477V606.242H463.695ZM466.914 596.078C466.914 595.854 466.992 595.661 467.148 595.5C467.31 595.339 467.503 595.258 467.727 595.258C467.951 595.258 468.141 595.339 468.297 595.5C468.453 595.661 468.531 595.854 468.531 596.078C468.531 596.307 468.453 596.503 468.297 596.664C468.141 596.826 467.951 596.906 467.727 596.906C467.503 596.906 467.31 596.826 467.148 596.664C466.992 596.503 466.914 596.307 466.914 596.078ZM468.422 599.344V603.805C468.422 604.487 468.432 604.917 468.453 605.094C468.474 605.271 468.549 605.406 468.68 605.5C468.81 605.594 469.042 605.641 469.375 605.641H469.539V606H466.094V605.641H466.359C466.729 605.641 466.969 605.589 467.078 605.484C467.193 605.375 467.258 605.247 467.273 605.102C467.294 604.951 467.305 604.518 467.305 603.805V601.867C467.305 601.117 467.268 600.659 467.195 600.492C467.128 600.326 467.034 600.221 466.914 600.18C466.799 600.138 466.596 600.117 466.305 600.117H466.094V599.758C467.021 599.664 467.74 599.526 468.25 599.344H468.422ZM472.086 599.344H472.164C472.315 599.693 472.391 600.141 472.391 600.688C472.74 600.24 473.115 599.904 473.516 599.68C473.922 599.456 474.357 599.344 474.82 599.344C475.346 599.344 475.773 599.464 476.102 599.703C476.43 599.943 476.659 600.302 476.789 600.781C477.185 600.302 477.591 599.943 478.008 599.703C478.424 599.464 478.849 599.344 479.281 599.344C479.776 599.344 480.195 599.458 480.539 599.688C480.883 599.917 481.091 600.177 481.164 600.469C481.237 600.76 481.273 601.232 481.273 601.883V603.805C481.273 604.549 481.286 605.003 481.312 605.164C481.344 605.326 481.427 605.445 481.562 605.523C481.703 605.602 481.961 605.641 482.336 605.641V606H479.141V605.641C479.479 605.641 479.716 605.604 479.852 605.531C479.992 605.453 480.078 605.339 480.109 605.188C480.141 605.031 480.156 604.57 480.156 603.805V601.672C480.156 601.24 480.13 600.914 480.078 600.695C480.031 600.477 479.904 600.289 479.695 600.133C479.487 599.977 479.216 599.898 478.883 599.898C478.544 599.898 478.203 600.013 477.859 600.242C477.521 600.471 477.18 600.818 476.836 601.281V603.805C476.836 604.487 476.844 604.917 476.859 605.094C476.88 605.266 476.953 605.401 477.078 605.5C477.208 605.594 477.438 605.641 477.766 605.641V606H474.672V605.641C475.021 605.641 475.263 605.604 475.398 605.531C475.539 605.458 475.625 605.346 475.656 605.195C475.693 605.044 475.711 604.581 475.711 603.805V602.031C475.711 601.469 475.688 601.062 475.641 600.812C475.599 600.557 475.466 600.341 475.242 600.164C475.018 599.982 474.74 599.891 474.406 599.891C474.083 599.891 473.753 599.995 473.414 600.203C473.081 600.411 472.74 600.724 472.391 601.141V603.805C472.391 604.508 472.401 604.945 472.422 605.117C472.443 605.289 472.521 605.419 472.656 605.508C472.792 605.596 473.034 605.641 473.383 605.641V606H470.25V605.641C470.594 605.641 470.833 605.604 470.969 605.531C471.109 605.453 471.195 605.339 471.227 605.188C471.258 605.036 471.273 604.576 471.273 603.805V601.891C471.273 601.161 471.26 600.716 471.234 600.555C471.214 600.388 471.133 600.263 470.992 600.18C470.857 600.096 470.609 600.055 470.25 600.055V599.695C470.99 599.622 471.602 599.505 472.086 599.344ZM487.609 605.891V602.484H488C488.443 604.703 489.492 605.812 491.148 605.812C491.893 605.812 492.469 605.602 492.875 605.18C493.286 604.753 493.492 604.276 493.492 603.75C493.492 603.219 493.312 602.773 492.953 602.414C492.594 602.06 491.938 601.68 490.984 601.273C490.135 600.909 489.495 600.591 489.062 600.32C488.63 600.044 488.292 599.688 488.047 599.25C487.807 598.812 487.688 598.346 487.688 597.852C487.688 597.096 487.948 596.469 488.469 595.969C488.995 595.464 489.659 595.211 490.461 595.211C490.909 595.211 491.331 595.284 491.727 595.43C492.122 595.576 492.529 595.878 492.945 596.336C493.185 596.049 493.32 595.74 493.352 595.406H493.695V598.18H493.352C493.154 597.372 492.802 596.737 492.297 596.273C491.797 595.81 491.216 595.578 490.555 595.578C489.924 595.578 489.461 595.75 489.164 596.094C488.872 596.432 488.727 596.805 488.727 597.211C488.727 597.701 488.911 598.115 489.281 598.453C489.646 598.797 490.305 599.182 491.258 599.609C492.169 600.016 492.831 600.344 493.242 600.594C493.659 600.839 493.992 601.18 494.242 601.617C494.492 602.055 494.617 602.56 494.617 603.133C494.617 604.039 494.315 604.776 493.711 605.344C493.107 605.911 492.299 606.195 491.289 606.195C490.128 606.195 489.159 605.75 488.383 604.859C488.211 605.104 488.083 605.448 488 605.891H487.609ZM501.75 601.766H497.289C497.268 602.073 497.258 602.302 497.258 602.453C497.258 603.578 497.432 604.424 497.781 604.992C498.135 605.555 498.661 605.836 499.359 605.836C500.307 605.836 500.979 605.411 501.375 604.562H501.75C501.583 605.094 501.253 605.51 500.758 605.812C500.263 606.109 499.724 606.258 499.141 606.258C498.599 606.258 498.086 606.122 497.602 605.852C497.122 605.576 496.729 605.188 496.422 604.688C496.115 604.188 495.961 603.581 495.961 602.867C495.961 601.857 496.258 601.018 496.852 600.352C497.445 599.68 498.188 599.344 499.078 599.344C499.917 599.344 500.565 599.599 501.023 600.109C501.482 600.62 501.724 601.172 501.75 601.766ZM500.383 601.453C500.398 601.333 500.406 601.227 500.406 601.133C500.406 600.674 500.271 600.32 500 600.07C499.734 599.815 499.406 599.688 499.016 599.688C498.068 599.688 497.503 600.276 497.32 601.453H500.383ZM503.008 606.203V604.102H503.312C503.667 605.315 504.299 605.922 505.211 605.922C505.607 605.922 505.901 605.802 506.094 605.562C506.292 605.323 506.391 605.06 506.391 604.773C506.391 604.44 506.286 604.167 506.078 603.953C505.865 603.74 505.451 603.482 504.836 603.18C504.19 602.862 503.727 602.549 503.445 602.242C503.164 601.94 503.023 601.568 503.023 601.125C503.023 600.703 503.174 600.302 503.477 599.922C503.779 599.536 504.203 599.344 504.75 599.344C505.307 599.344 505.768 599.57 506.133 600.023C506.211 599.945 506.312 599.755 506.438 599.453H506.727V601.43H506.438C506.333 600.956 506.13 600.549 505.828 600.211C505.531 599.867 505.18 599.695 504.773 599.695C504.461 599.695 504.208 599.792 504.016 599.984C503.823 600.177 503.727 600.401 503.727 600.656C503.727 600.938 503.833 601.18 504.047 601.383C504.255 601.591 504.654 601.828 505.242 602.094C506.128 602.495 506.669 602.885 506.867 603.266C507.065 603.651 507.164 604.021 507.164 604.375C507.164 604.932 506.979 605.385 506.609 605.734C506.245 606.083 505.784 606.258 505.227 606.258C504.638 606.258 504.115 606.016 503.656 605.531C503.516 605.688 503.401 605.911 503.312 606.203H503.008ZM510.312 600.656C510.625 600.219 510.974 599.891 511.359 599.672C511.75 599.453 512.177 599.344 512.641 599.344C513.167 599.344 513.602 599.453 513.945 599.672C514.294 599.891 514.521 600.161 514.625 600.484C514.729 600.802 514.781 601.32 514.781 602.039V603.805C514.781 604.555 514.794 605.01 514.82 605.172C514.852 605.333 514.938 605.453 515.078 605.531C515.219 605.604 515.479 605.641 515.859 605.641V606H512.555V605.641H512.703C513.083 605.641 513.328 605.586 513.438 605.477C513.552 605.367 513.617 605.24 513.633 605.094C513.654 604.943 513.664 604.513 513.664 603.805V601.883C513.664 601.352 513.633 600.958 513.57 600.703C513.508 600.448 513.359 600.237 513.125 600.07C512.896 599.904 512.607 599.82 512.258 599.82C511.852 599.82 511.487 599.94 511.164 600.18C510.841 600.414 510.557 600.768 510.312 601.242V603.805C510.312 604.523 510.323 604.966 510.344 605.133C510.37 605.299 510.451 605.427 510.586 605.516C510.721 605.599 510.969 605.641 511.328 605.641V606H508.078V605.641H508.242C508.617 605.641 508.859 605.589 508.969 605.484C509.083 605.375 509.148 605.247 509.164 605.102C509.185 604.951 509.195 604.518 509.195 603.805V597.43C509.195 596.784 509.133 596.375 509.008 596.203C508.888 596.031 508.596 595.945 508.133 595.945V595.586C508.94 595.586 509.612 595.477 510.148 595.258H510.312V600.656ZM523.25 604.828H523.539C523.492 605.719 523.055 606.164 522.227 606.164C521.872 606.164 521.591 606.07 521.383 605.883C521.18 605.695 521.047 605.417 520.984 605.047C520.464 605.417 519.987 605.695 519.555 605.883C519.128 606.07 518.745 606.164 518.406 606.164C517.974 606.164 517.602 606.039 517.289 605.789C516.977 605.539 516.82 605.208 516.82 604.797C516.82 604.26 517.081 603.792 517.602 603.391C518.128 602.99 518.852 602.599 519.773 602.219L520.984 601.727V601.414C520.984 600.971 520.956 600.651 520.898 600.453C520.841 600.255 520.693 600.078 520.453 599.922C520.214 599.766 519.898 599.688 519.508 599.688C518.727 599.688 518.292 599.948 518.203 600.469C518.12 601 517.901 601.266 517.547 601.266C517.229 601.266 517.07 601.115 517.07 600.812C517.07 600.516 517.281 600.198 517.703 599.859C518.125 599.516 518.781 599.344 519.672 599.344C520.333 599.344 520.846 599.448 521.211 599.656C521.576 599.865 521.815 600.102 521.93 600.367C522.049 600.633 522.109 601.039 522.109 601.586V604.172C522.109 604.776 522.141 605.164 522.203 605.336C522.266 605.508 522.401 605.594 522.609 605.594C522.953 605.594 523.167 605.339 523.25 604.828ZM520.984 602.094L520.133 602.438C518.789 602.984 518.117 603.672 518.117 604.5C518.117 604.828 518.203 605.094 518.375 605.297C518.547 605.495 518.771 605.594 519.047 605.594C519.292 605.594 519.576 605.513 519.898 605.352C520.221 605.19 520.583 604.948 520.984 604.625V602.094ZM529.711 600.281V597.781C529.711 597.099 529.701 596.669 529.68 596.492C529.664 596.315 529.591 596.18 529.461 596.086C529.331 595.992 529.099 595.945 528.766 595.945H528.602V595.586C529.232 595.57 529.922 595.461 530.672 595.258H530.836V603.859C530.836 604.604 530.849 605.057 530.875 605.219C530.901 605.38 530.982 605.5 531.117 605.578C531.258 605.656 531.516 605.695 531.891 605.695V606.055C531.135 606.07 530.464 606.138 529.875 606.258C529.812 606.013 529.781 605.628 529.781 605.102C529.396 605.487 528.997 605.776 528.586 605.969C528.18 606.161 527.758 606.258 527.32 606.258C526.492 606.258 525.776 605.924 525.172 605.258C524.573 604.591 524.273 603.784 524.273 602.836C524.273 601.794 524.581 600.953 525.195 600.312C525.81 599.667 526.542 599.344 527.391 599.344C527.823 599.344 528.232 599.422 528.617 599.578C529.003 599.734 529.367 599.969 529.711 600.281ZM529.711 600.734C529.367 600.438 529.021 600.216 528.672 600.07C528.328 599.919 527.982 599.844 527.633 599.844C527.044 599.844 526.552 600.07 526.156 600.523C525.766 600.977 525.57 601.716 525.57 602.742C525.57 603.784 525.771 604.552 526.172 605.047C526.578 605.542 527.078 605.789 527.672 605.789C528.068 605.789 528.435 605.695 528.773 605.508C529.112 605.32 529.424 605.039 529.711 604.664V600.734ZM534.711 600.977C534.888 600.513 535.174 600.125 535.57 599.812C535.971 599.5 536.362 599.344 536.742 599.344C537.086 599.344 537.357 599.451 537.555 599.664C537.753 599.878 537.852 600.096 537.852 600.32C537.852 600.471 537.799 600.602 537.695 600.711C537.596 600.82 537.474 600.875 537.328 600.875C537.068 600.875 536.87 600.682 536.734 600.297C536.641 600.036 536.5 599.906 536.312 599.906C536.089 599.906 535.82 600.06 535.508 600.367C535.195 600.669 534.995 600.984 534.906 601.312C534.818 601.641 534.773 602.091 534.773 602.664V603.805C534.773 604.487 534.781 604.917 534.797 605.094C534.818 605.271 534.893 605.406 535.023 605.5C535.154 605.594 535.385 605.641 535.719 605.641H535.938V606H532.539V605.641H532.703C533.016 605.641 533.237 605.599 533.367 605.516C533.503 605.427 533.583 605.305 533.609 605.148C533.635 604.992 533.648 604.544 533.648 603.805V602C533.648 601.312 533.638 600.883 533.617 600.711C533.602 600.534 533.529 600.398 533.398 600.305C533.268 600.206 533.036 600.156 532.703 600.156H532.539V599.805C533.029 599.747 533.669 599.594 534.461 599.344C534.612 599.755 534.695 600.299 534.711 600.977ZM538.961 596.078C538.961 595.854 539.039 595.661 539.195 595.5C539.357 595.339 539.549 595.258 539.773 595.258C539.997 595.258 540.188 595.339 540.344 595.5C540.5 595.661 540.578 595.854 540.578 596.078C540.578 596.307 540.5 596.503 540.344 596.664C540.188 596.826 539.997 596.906 539.773 596.906C539.549 596.906 539.357 596.826 539.195 596.664C539.039 596.503 538.961 596.307 538.961 596.078ZM540.469 599.344V603.805C540.469 604.487 540.479 604.917 540.5 605.094C540.521 605.271 540.596 605.406 540.727 605.5C540.857 605.594 541.089 605.641 541.422 605.641H541.586V606H538.141V605.641H538.406C538.776 605.641 539.016 605.589 539.125 605.484C539.24 605.375 539.305 605.247 539.32 605.102C539.341 604.951 539.352 604.518 539.352 603.805V601.867C539.352 601.117 539.315 600.659 539.242 600.492C539.174 600.326 539.081 600.221 538.961 600.18C538.846 600.138 538.643 600.117 538.352 600.117H538.141V599.758C539.068 599.664 539.786 599.526 540.297 599.344H540.469ZM548.273 595.508H549.219L543.891 606.258H542.945L548.273 595.508ZM560.344 602.023H560.68V605.734H560.344C560.25 605.312 560.081 604.94 559.836 604.617C558.904 605.669 557.714 606.195 556.266 606.195C554.734 606.195 553.482 605.711 552.508 604.742C551.539 603.773 551.055 602.492 551.055 600.898C551.055 599.852 551.279 598.867 551.727 597.945C552.174 597.018 552.799 596.331 553.602 595.883C554.404 595.435 555.284 595.211 556.242 595.211C557.034 595.211 557.75 595.375 558.391 595.703C559.036 596.026 559.518 596.385 559.836 596.781C560.06 596.339 560.195 595.88 560.242 595.406H560.586L560.68 599.422H560.344C560.109 597.995 559.63 597.003 558.906 596.445C558.188 595.888 557.375 595.609 556.469 595.609C555.359 595.609 554.477 596.06 553.82 596.961C553.169 597.862 552.844 599.151 552.844 600.828C552.844 602.417 553.201 603.635 553.914 604.484C554.628 605.328 555.516 605.75 556.578 605.75C557.146 605.75 557.727 605.612 558.32 605.336C558.914 605.06 559.383 604.594 559.727 603.938C560.076 603.276 560.281 602.638 560.344 602.023ZM568.781 604.828H569.07C569.023 605.719 568.586 606.164 567.758 606.164C567.404 606.164 567.122 606.07 566.914 605.883C566.711 605.695 566.578 605.417 566.516 605.047C565.995 605.417 565.518 605.695 565.086 605.883C564.659 606.07 564.276 606.164 563.938 606.164C563.505 606.164 563.133 606.039 562.82 605.789C562.508 605.539 562.352 605.208 562.352 604.797C562.352 604.26 562.612 603.792 563.133 603.391C563.659 602.99 564.383 602.599 565.305 602.219L566.516 601.727V601.414C566.516 600.971 566.487 600.651 566.43 600.453C566.372 600.255 566.224 600.078 565.984 599.922C565.745 599.766 565.43 599.688 565.039 599.688C564.258 599.688 563.823 599.948 563.734 600.469C563.651 601 563.432 601.266 563.078 601.266C562.76 601.266 562.602 601.115 562.602 600.812C562.602 600.516 562.812 600.198 563.234 599.859C563.656 599.516 564.312 599.344 565.203 599.344C565.865 599.344 566.378 599.448 566.742 599.656C567.107 599.865 567.346 600.102 567.461 600.367C567.581 600.633 567.641 601.039 567.641 601.586V604.172C567.641 604.776 567.672 605.164 567.734 605.336C567.797 605.508 567.932 605.594 568.141 605.594C568.484 605.594 568.698 605.339 568.781 604.828ZM566.516 602.094L565.664 602.438C564.32 602.984 563.648 603.672 563.648 604.5C563.648 604.828 563.734 605.094 563.906 605.297C564.078 605.495 564.302 605.594 564.578 605.594C564.823 605.594 565.107 605.513 565.43 605.352C565.753 605.19 566.115 604.948 566.516 604.625V602.094ZM571.898 600.977C572.076 600.513 572.362 600.125 572.758 599.812C573.159 599.5 573.549 599.344 573.93 599.344C574.273 599.344 574.544 599.451 574.742 599.664C574.94 599.878 575.039 600.096 575.039 600.32C575.039 600.471 574.987 600.602 574.883 600.711C574.784 600.82 574.661 600.875 574.516 600.875C574.255 600.875 574.057 600.682 573.922 600.297C573.828 600.036 573.688 599.906 573.5 599.906C573.276 599.906 573.008 600.06 572.695 600.367C572.383 600.669 572.182 600.984 572.094 601.312C572.005 601.641 571.961 602.091 571.961 602.664V603.805C571.961 604.487 571.969 604.917 571.984 605.094C572.005 605.271 572.081 605.406 572.211 605.5C572.341 605.594 572.573 605.641 572.906 605.641H573.125V606H569.727V605.641H569.891C570.203 605.641 570.424 605.599 570.555 605.516C570.69 605.427 570.771 605.305 570.797 605.148C570.823 604.992 570.836 604.544 570.836 603.805V602C570.836 601.312 570.826 600.883 570.805 600.711C570.789 600.534 570.716 600.398 570.586 600.305C570.456 600.206 570.224 600.156 569.891 600.156H569.727V599.805C570.216 599.747 570.857 599.594 571.648 599.344C571.799 599.755 571.883 600.299 571.898 600.977ZM579.469 599.961H577.539V603.828C577.539 604.422 577.565 604.823 577.617 605.031C577.669 605.234 577.779 605.398 577.945 605.523C578.117 605.648 578.299 605.711 578.492 605.711C578.867 605.711 579.193 605.497 579.469 605.07L579.719 605.219C579.557 605.562 579.318 605.823 579 606C578.688 606.172 578.37 606.258 578.047 606.258C577.672 606.258 577.341 606.148 577.055 605.93C576.773 605.706 576.596 605.445 576.523 605.148C576.456 604.852 576.422 604.331 576.422 603.586V599.961H575.492V599.602C575.919 599.591 576.302 599.411 576.641 599.062C576.979 598.714 577.195 598.224 577.289 597.594H577.539V599.602H579.469V599.961ZM580.344 602.789C580.344 601.81 580.672 600.992 581.328 600.336C581.984 599.674 582.792 599.344 583.75 599.344C584.714 599.344 585.523 599.674 586.18 600.336C586.836 600.997 587.164 601.815 587.164 602.789C587.164 603.867 586.831 604.716 586.164 605.336C585.497 605.951 584.693 606.258 583.75 606.258C582.807 606.258 582.003 605.945 581.336 605.32C580.674 604.69 580.344 603.846 580.344 602.789ZM581.641 602.828C581.641 603.964 581.826 604.76 582.195 605.219C582.565 605.672 583.083 605.898 583.75 605.898C584.432 605.898 584.953 605.672 585.312 605.219C585.677 604.76 585.859 603.964 585.859 602.828C585.859 601.703 585.68 600.901 585.32 600.422C584.961 599.943 584.438 599.703 583.75 599.703C583.068 599.703 582.544 599.943 582.18 600.422C581.82 600.896 581.641 601.698 581.641 602.828ZM588.344 602.789C588.344 601.81 588.672 600.992 589.328 600.336C589.984 599.674 590.792 599.344 591.75 599.344C592.714 599.344 593.523 599.674 594.18 600.336C594.836 600.997 595.164 601.815 595.164 602.789C595.164 603.867 594.831 604.716 594.164 605.336C593.497 605.951 592.693 606.258 591.75 606.258C590.807 606.258 590.003 605.945 589.336 605.32C588.674 604.69 588.344 603.846 588.344 602.789ZM589.641 602.828C589.641 603.964 589.826 604.76 590.195 605.219C590.565 605.672 591.083 605.898 591.75 605.898C592.432 605.898 592.953 605.672 593.312 605.219C593.677 604.76 593.859 603.964 593.859 602.828C593.859 601.703 593.68 600.901 593.32 600.422C592.961 599.943 592.438 599.703 591.75 599.703C591.068 599.703 590.544 599.943 590.18 600.422C589.82 600.896 589.641 601.698 589.641 602.828ZM597.953 599.344H598.164C598.284 599.667 598.352 600.107 598.367 600.664C598.742 600.221 599.135 599.891 599.547 599.672C599.958 599.453 600.388 599.344 600.836 599.344C601.346 599.344 601.763 599.451 602.086 599.664C602.414 599.878 602.625 600.141 602.719 600.453C602.812 600.76 602.859 601.211 602.859 601.805V603.805C602.859 604.544 602.872 604.995 602.898 605.156C602.924 605.318 603.005 605.44 603.141 605.523C603.281 605.602 603.536 605.641 603.906 605.641V606H600.633V605.641H600.781C601.156 605.641 601.401 605.586 601.516 605.477C601.63 605.367 601.695 605.24 601.711 605.094C601.727 604.948 601.734 604.518 601.734 603.805V601.742C601.734 601.237 601.708 600.878 601.656 600.664C601.609 600.445 601.477 600.253 601.258 600.086C601.044 599.919 600.771 599.836 600.438 599.836C600.057 599.836 599.693 599.951 599.344 600.18C599 600.404 598.674 600.742 598.367 601.195V603.805C598.367 604.544 598.38 604.995 598.406 605.156C598.438 605.318 598.521 605.44 598.656 605.523C598.797 605.602 599.055 605.641 599.43 605.641V606H596.195V605.641C596.555 605.641 596.805 605.604 596.945 605.531C597.086 605.458 597.172 605.349 597.203 605.203C597.24 605.052 597.258 604.586 597.258 603.805V601.898C597.258 601.154 597.242 600.703 597.211 600.547C597.185 600.385 597.102 600.266 596.961 600.188C596.826 600.104 596.57 600.062 596.195 600.062V599.703C596.768 599.641 597.354 599.521 597.953 599.344ZM604.898 606.203V604.102H605.203C605.557 605.315 606.19 605.922 607.102 605.922C607.497 605.922 607.792 605.802 607.984 605.562C608.182 605.323 608.281 605.06 608.281 604.773C608.281 604.44 608.177 604.167 607.969 603.953C607.755 603.74 607.341 603.482 606.727 603.18C606.081 602.862 605.617 602.549 605.336 602.242C605.055 601.94 604.914 601.568 604.914 601.125C604.914 600.703 605.065 600.302 605.367 599.922C605.669 599.536 606.094 599.344 606.641 599.344C607.198 599.344 607.659 599.57 608.023 600.023C608.102 599.945 608.203 599.755 608.328 599.453H608.617V601.43H608.328C608.224 600.956 608.021 600.549 607.719 600.211C607.422 599.867 607.07 599.695 606.664 599.695C606.352 599.695 606.099 599.792 605.906 599.984C605.714 600.177 605.617 600.401 605.617 600.656C605.617 600.938 605.724 601.18 605.938 601.383C606.146 601.591 606.544 601.828 607.133 602.094C608.018 602.495 608.56 602.885 608.758 603.266C608.956 603.651 609.055 604.021 609.055 604.375C609.055 604.932 608.87 605.385 608.5 605.734C608.135 606.083 607.674 606.258 607.117 606.258C606.529 606.258 606.005 606.016 605.547 605.531C605.406 605.688 605.292 605.911 605.203 606.203H604.898ZM619.602 600.281V597.781C619.602 597.099 619.591 596.669 619.57 596.492C619.555 596.315 619.482 596.18 619.352 596.086C619.221 595.992 618.99 595.945 618.656 595.945H618.492V595.586C619.122 595.57 619.812 595.461 620.562 595.258H620.727V603.859C620.727 604.604 620.74 605.057 620.766 605.219C620.792 605.38 620.872 605.5 621.008 605.578C621.148 605.656 621.406 605.695 621.781 605.695V606.055C621.026 606.07 620.354 606.138 619.766 606.258C619.703 606.013 619.672 605.628 619.672 605.102C619.286 605.487 618.888 605.776 618.477 605.969C618.07 606.161 617.648 606.258 617.211 606.258C616.383 606.258 615.667 605.924 615.062 605.258C614.464 604.591 614.164 603.784 614.164 602.836C614.164 601.794 614.471 600.953 615.086 600.312C615.701 599.667 616.432 599.344 617.281 599.344C617.714 599.344 618.122 599.422 618.508 599.578C618.893 599.734 619.258 599.969 619.602 600.281ZM619.602 600.734C619.258 600.438 618.911 600.216 618.562 600.07C618.219 599.919 617.872 599.844 617.523 599.844C616.935 599.844 616.443 600.07 616.047 600.523C615.656 600.977 615.461 601.716 615.461 602.742C615.461 603.784 615.661 604.552 616.062 605.047C616.469 605.542 616.969 605.789 617.562 605.789C617.958 605.789 618.326 605.695 618.664 605.508C619.003 605.32 619.315 605.039 619.602 604.664V600.734ZM623.008 596.078C623.008 595.854 623.086 595.661 623.242 595.5C623.404 595.339 623.596 595.258 623.82 595.258C624.044 595.258 624.234 595.339 624.391 595.5C624.547 595.661 624.625 595.854 624.625 596.078C624.625 596.307 624.547 596.503 624.391 596.664C624.234 596.826 624.044 596.906 623.82 596.906C623.596 596.906 623.404 596.826 623.242 596.664C623.086 596.503 623.008 596.307 623.008 596.078ZM624.516 599.344V603.805C624.516 604.487 624.526 604.917 624.547 605.094C624.568 605.271 624.643 605.406 624.773 605.5C624.904 605.594 625.135 605.641 625.469 605.641H625.633V606H622.188V605.641H622.453C622.823 605.641 623.062 605.589 623.172 605.484C623.286 605.375 623.352 605.247 623.367 605.102C623.388 604.951 623.398 604.518 623.398 603.805V601.867C623.398 601.117 623.362 600.659 623.289 600.492C623.221 600.326 623.128 600.221 623.008 600.18C622.893 600.138 622.69 600.117 622.398 600.117H622.188V599.758C623.115 599.664 623.833 599.526 624.344 599.344H624.516ZM628.602 600.977C628.779 600.513 629.065 600.125 629.461 599.812C629.862 599.5 630.253 599.344 630.633 599.344C630.977 599.344 631.247 599.451 631.445 599.664C631.643 599.878 631.742 600.096 631.742 600.32C631.742 600.471 631.69 600.602 631.586 600.711C631.487 600.82 631.365 600.875 631.219 600.875C630.958 600.875 630.76 600.682 630.625 600.297C630.531 600.036 630.391 599.906 630.203 599.906C629.979 599.906 629.711 600.06 629.398 600.367C629.086 600.669 628.885 600.984 628.797 601.312C628.708 601.641 628.664 602.091 628.664 602.664V603.805C628.664 604.487 628.672 604.917 628.688 605.094C628.708 605.271 628.784 605.406 628.914 605.5C629.044 605.594 629.276 605.641 629.609 605.641H629.828V606H626.43V605.641H626.594C626.906 605.641 627.128 605.599 627.258 605.516C627.393 605.427 627.474 605.305 627.5 605.148C627.526 604.992 627.539 604.544 627.539 603.805V602C627.539 601.312 627.529 600.883 627.508 600.711C627.492 600.534 627.419 600.398 627.289 600.305C627.159 600.206 626.927 600.156 626.594 600.156H626.43V599.805C626.919 599.747 627.56 599.594 628.352 599.344C628.503 599.755 628.586 600.299 628.602 600.977ZM638.016 601.766H633.555C633.534 602.073 633.523 602.302 633.523 602.453C633.523 603.578 633.698 604.424 634.047 604.992C634.401 605.555 634.927 605.836 635.625 605.836C636.573 605.836 637.245 605.411 637.641 604.562H638.016C637.849 605.094 637.518 605.51 637.023 605.812C636.529 606.109 635.99 606.258 635.406 606.258C634.865 606.258 634.352 606.122 633.867 605.852C633.388 605.576 632.995 605.188 632.688 604.688C632.38 604.188 632.227 603.581 632.227 602.867C632.227 601.857 632.523 601.018 633.117 600.352C633.711 599.68 634.453 599.344 635.344 599.344C636.182 599.344 636.831 599.599 637.289 600.109C637.747 600.62 637.99 601.172 638.016 601.766ZM636.648 601.453C636.664 601.333 636.672 601.227 636.672 601.133C636.672 600.674 636.536 600.32 636.266 600.07C636 599.815 635.672 599.688 635.281 599.688C634.333 599.688 633.768 600.276 633.586 601.453H636.648ZM644.742 604.438H645.086C644.732 605.651 643.846 606.258 642.43 606.258C641.518 606.258 640.75 605.948 640.125 605.328C639.505 604.708 639.195 603.888 639.195 602.867C639.195 601.82 639.531 600.971 640.203 600.32C640.875 599.669 641.669 599.344 642.586 599.344C643.138 599.344 643.646 599.466 644.109 599.711C644.573 599.951 644.805 600.245 644.805 600.594C644.805 600.724 644.76 600.846 644.672 600.961C644.589 601.076 644.466 601.133 644.305 601.133C643.961 601.133 643.75 600.932 643.672 600.531C643.609 600.229 643.513 600.018 643.383 599.898C643.247 599.779 642.984 599.719 642.594 599.719C641.896 599.719 641.37 599.961 641.016 600.445C640.667 600.93 640.492 601.659 640.492 602.633C640.492 603.638 640.68 604.424 641.055 604.992C641.435 605.56 642.008 605.844 642.773 605.844C643.805 605.844 644.461 605.375 644.742 604.438ZM649.859 599.961H647.93V603.828C647.93 604.422 647.956 604.823 648.008 605.031C648.06 605.234 648.169 605.398 648.336 605.523C648.508 605.648 648.69 605.711 648.883 605.711C649.258 605.711 649.583 605.497 649.859 605.07L650.109 605.219C649.948 605.562 649.708 605.823 649.391 606C649.078 606.172 648.76 606.258 648.438 606.258C648.062 606.258 647.732 606.148 647.445 605.93C647.164 605.706 646.987 605.445 646.914 605.148C646.846 604.852 646.812 604.331 646.812 603.586V599.961H645.883V599.602C646.31 599.591 646.693 599.411 647.031 599.062C647.37 598.714 647.586 598.224 647.68 597.594H647.93V599.602H649.859V599.961ZM650.734 602.789C650.734 601.81 651.062 600.992 651.719 600.336C652.375 599.674 653.182 599.344 654.141 599.344C655.104 599.344 655.914 599.674 656.57 600.336C657.227 600.997 657.555 601.815 657.555 602.789C657.555 603.867 657.221 604.716 656.555 605.336C655.888 605.951 655.083 606.258 654.141 606.258C653.198 606.258 652.393 605.945 651.727 605.32C651.065 604.69 650.734 603.846 650.734 602.789ZM652.031 602.828C652.031 603.964 652.216 604.76 652.586 605.219C652.956 605.672 653.474 605.898 654.141 605.898C654.823 605.898 655.344 605.672 655.703 605.219C656.068 604.76 656.25 603.964 656.25 602.828C656.25 601.703 656.07 600.901 655.711 600.422C655.352 599.943 654.828 599.703 654.141 599.703C653.458 599.703 652.935 599.943 652.57 600.422C652.211 600.896 652.031 601.698 652.031 602.828ZM660.805 600.977C660.982 600.513 661.268 600.125 661.664 599.812C662.065 599.5 662.456 599.344 662.836 599.344C663.18 599.344 663.451 599.451 663.648 599.664C663.846 599.878 663.945 600.096 663.945 600.32C663.945 600.471 663.893 600.602 663.789 600.711C663.69 600.82 663.568 600.875 663.422 600.875C663.161 600.875 662.964 600.682 662.828 600.297C662.734 600.036 662.594 599.906 662.406 599.906C662.182 599.906 661.914 600.06 661.602 600.367C661.289 600.669 661.089 600.984 661 601.312C660.911 601.641 660.867 602.091 660.867 602.664V603.805C660.867 604.487 660.875 604.917 660.891 605.094C660.911 605.271 660.987 605.406 661.117 605.5C661.247 605.594 661.479 605.641 661.812 605.641H662.031V606H658.633V605.641H658.797C659.109 605.641 659.331 605.599 659.461 605.516C659.596 605.427 659.677 605.305 659.703 605.148C659.729 604.992 659.742 604.544 659.742 603.805V602C659.742 601.312 659.732 600.883 659.711 600.711C659.695 600.534 659.622 600.398 659.492 600.305C659.362 600.206 659.13 600.156 658.797 600.156H658.633V599.805C659.122 599.747 659.763 599.594 660.555 599.344C660.706 599.755 660.789 600.299 660.805 600.977ZM663.898 609.82C664.633 609.07 665.258 608.042 665.773 606.734C666.294 605.432 666.555 603.971 666.555 602.352C666.555 601.107 666.344 599.862 665.922 598.617C665.5 597.372 664.852 596.268 663.977 595.305H664.523C666.206 597.409 667.047 599.776 667.047 602.406C667.047 605.188 666.177 607.659 664.438 609.82H663.898Z" fill="#946E4A"/>
</svg>
