<svg width="316" height="162" viewBox="0 0 316 162" fill="none" xmlns="http://www.w3.org/2000/svg">
<path d="M0 3.59062C0 1.60758 1.60758 0 3.59062 0H312.409C314.392 0 316 1.60758 316 3.59062V156.016C316 159.321 313.321 162 310.016 162H5.98437C2.67929 162 0 159.321 0 156.016V3.59062Z" fill="#E5E5E5" fill-opacity="0.5"/>
<path d="M0 3.59062C0 1.60757 1.60758 0 3.59062 0H312.409C314.392 0 316 1.60758 316 3.59062V154.016C316 157.321 313.321 160 310.016 160H5.98437C2.67929 160 0 157.321 0 154.016V3.59062Z" fill="#E5E5E5" fill-opacity="0.7"/>
<path d="M0 3.59062C0 1.60758 1.60758 0 3.59062 0H312.409C314.392 0 316 1.60758 316 3.59062V152.016C316 155.321 313.321 158 310.016 158H5.98437C2.67929 158 0 155.321 0 152.016V3.59062Z" fill="#E5E5E5"/>
<path d="M0 3.59062C0 1.60758 1.60758 0 3.59062 0H312.409C314.392 0 316 1.60758 316 3.59062V150.016C316 153.321 313.321 156 310.016 156H5.98437C2.67929 156 0 153.321 0 150.016V3.59062Z" fill="white"/>
</svg>
